<svg xmlns="http://www.w3.org/2000/svg" viewBox="0 0 512 512" width="512" height="512">
  <path fill="#32BCAD" d="M396.1,109.8L281.4,12C267,0.3,245,0.3,230.6,12L115.9,109.8c-14.8,11.7-22.3,29.9-22.3,48.5v195.4c0,18.6,7.5,36.8,22.3,48.5L230.6,500c14.4,11.7,36.4,11.7,50.8,0l114.7-97.8c14.8-11.7,22.3-29.9,22.3-48.5V158.3C418.4,139.7,411,121.5,396.1,109.8z M353.4,258l-52.9,52.9c-8.9,8.9-23.3,8.9-32.2,0l-12.3-12.3l-12.3,12.3c-8.9,8.9-23.3,8.9-32.2,0l-52.9-52.9c-8.9-8.9-8.9-23.3,0-32.2c8.9-8.9,23.3-8.9,32.2,0l36.8,36.8l36.8-36.8c8.9-8.9,23.3-8.9,32.2,0c8.9,8.9,8.9,23.3,0,32.2L258,258l-36.8,36.8l36.8,36.8c8.9,8.9,23.3,8.9,32.2,0c8.9-8.9,8.9-23.3,0-32.2l-52.9-52.9L353.4,258z"/>
</svg>
